<svg width="200" height="200" viewBox="0 0 200 200" fill="none" xmlns="http://www.w3.org/2000/svg">
  <defs>
    <filter id="soft-shadow">
      <feGaussianBlur in="SourceAlpha" stdDeviation="3" />
      <feOffset dx="2" dy="2" result="offsetblur" />
      <feComponentTransfer>
        <feFuncA type="linear" slope="0.2" />
      </feComponentTransfer>
      <feMerge>
        <feMergeNode />
        <feMergeNode in="SourceGraphic" />
      </feMerge>
    </filter>
  </defs>
  
  <!-- Background -->
  <circle cx="100" cy="100" r="95" fill="#FFFBF5" />
  
  <!-- Stacked mosaic tiles forming HI - 3D effect -->
  <g filter="url(#soft-shadow)">
    <!-- H - left vertical stack -->
    <rect x="45" y="50" width="20" height="22" rx="3" fill="#FF6B9D" />
    <rect x="47" y="52" width="16" height="18" rx="2" fill="#FF8FAB" opacity="0.6" />
    
    <rect x="45" y="76" width="20" height="22" rx="3" fill="#FFD93D" />
    <rect x="47" y="78" width="16" height="18" rx="2" fill="#FFE66D" opacity="0.6" />
    
    <rect x="45" y="102" width="20" height="22" rx="3" fill="#98D8C8" />
    <rect x="47" y="104" width="16" height="18" rx="2" fill="#B8F2E6" opacity="0.6" />
    
    <!-- H - horizontal bar -->
    <rect x="69" y="85" width="22" height="20" rx="3" fill="#FFA07A" />
    <rect x="71" y="87" width="18" height="16" rx="2" fill="#FFB89A" opacity="0.6" />
    
    <!-- H - right vertical stack -->
    <rect x="95" y="50" width="20" height="22" rx="3" fill="#A8DAFF" />
    <rect x="97" y="52" width="16" height="18" rx="2" fill="#C8E8FF" opacity="0.6" />
    
    <rect x="95" y="76" width="20" height="22" rx="3" fill="#C8A2E0" />
    <rect x="97" y="78" width="16" height="18" rx="2" fill="#D8B2F0" opacity="0.6" />
    
    <rect x="95" y="102" width="20" height="22" rx="3" fill="#6BCF7F" />
    <rect x="97" y="104" width="16" height="18" rx="2" fill="#8BDF9F" opacity="0.6" />
    
    <!-- I - vertical stack -->
    <rect x="135" y="50" width="20" height="22" rx="3" fill="#FFB347" />
    <rect x="137" y="52" width="16" height="18" rx="2" fill="#FFC367" opacity="0.6" />
    
    <rect x="135" y="76" width="20" height="22" rx="3" fill="#87CEEB" />
    <rect x="137" y="78" width="16" height="18" rx="2" fill="#A7DEFB" opacity="0.6" />
    
    <rect x="135" y="102" width="20" height="22" rx="3" fill="#B19CD9" />
    <rect x="137" y="104" width="16" height="18" rx="2" fill="#C1ACE9" opacity="0.6" />
  </g>
  
  <!-- Celebration confetti -->
  <g opacity="0.8">
    <circle cx="30" cy="70" r="3" fill="#FFD93D" />
    <circle cx="25" cy="110" r="2.5" fill="#FF6B9D" />
    <rect x="168" y="65" width="5" height="5" rx="1" fill="#98D8C8" transform="rotate(15 170 67)" />
    <circle cx="175" cy="95" r="3" fill="#C8A2E0" />
    <rect x="170" y="120" width="4" height="4" rx="1" fill="#FFA07A" transform="rotate(-20 172 122)" />
    <circle cx="35" cy="140" r="2" fill="#87CEEB" />
  </g>
  
  <!-- Text labels -->
  <text x="100" y="155" font-family="system-ui, -apple-system, sans-serif" font-size="18" font-weight="700" fill="#8B7355" text-anchor="middle" letter-spacing="4">MOSAIC</text>
  <text x="100" y="172" font-family="system-ui, -apple-system, sans-serif" font-size="11" font-weight="500" fill="#A89080" text-anchor="middle" letter-spacing="2">magazine</text>
</svg>
